<svg width="116" height="24" viewBox="0 0 116 24" fill="none" xmlns="http://www.w3.org/2000/svg">
<path d="M0 22.7545H10.8142V20.0446H3.23672V6.0191H0V22.7545Z" fill="white"/>
<path d="M16.5081 14.4245C16.5081 18.9908 19.9205 23.0563 25.4404 23.0563C31.0859 23.0563 34.6739 18.715 34.6739 14.0733C34.6739 9.50666 31.2364 5.7179 25.6662 5.7179C19.7447 5.7179 16.5081 10.0586 16.5081 14.4245ZM19.8953 14.3241C19.8953 11.3131 21.9026 8.45288 25.616 8.45288C29.3294 8.45288 31.3117 11.2882 31.3117 14.274C31.3117 17.3347 29.204 20.3204 25.5157 20.3204C21.7772 20.3204 19.8953 17.1852 19.8953 14.3241Z" fill="white"/>
<path d="M46.1706 22.7545H49.3822V8.72885H54.8772V6.0191H40.6506V8.72885H46.1706V22.7545Z" fill="white"/>
<path d="M62.394 22.7545H65.6307V16.4319H68.0144L72.1293 22.7545H75.943L71.2259 15.6292C72.907 14.7758 74.1366 13.1699 74.1366 11.0122C74.1366 8.27729 72.2798 6.0191 67.9642 6.0191H62.394V22.7545ZM65.6307 13.747V8.72885H67.4373C69.9213 8.72885 70.7493 9.78275 70.7493 11.1627C70.7493 12.7435 69.6955 13.747 67.4624 13.747H65.6307Z" fill="white"/>
<path d="M85.1235 3.23401L90.7939 4.99029L91.4213 3.30921L86.0016 0.925598L85.1235 3.23401ZM83.2166 22.7545H93.9555V20.0446H86.4533V15.6032H92.2242V12.9191H86.4533V8.72883H93.7797V6.01909H83.2166V22.7545Z" fill="white"/>
<path d="M102.03 22.7545H105.266V15.3274H105.718L111.614 22.7545H115.704L108.453 13.8474L115.353 6.0191H111.364L105.718 12.643H105.266V6.0191H102.03V22.7545Z" fill="white"/>
</svg>
