<svg width="82" height="94" viewBox="0 0 82 94" fill="none" xmlns="http://www.w3.org/2000/svg">
<path d="M28.745 0.373291C12.0231 10.5267 0.851807 28.9097 0.851807 49.902C0.851807 70.4044 12.7578 96.2123 34.4949 93.8234C43.9238 92.5238 50.4075 87.559 52.31 79.9411C53.1086 77.3776 53.0673 73.1959 53.0325 69.6755V69.6753C53.0193 68.3421 53.0071 67.104 53.0416 66.0844L60.0139 56.8863L69.223 72.5358L66.7666 73.9735C66.5935 74.0972 66.465 74.2749 66.3949 74.4759C66.2803 74.8921 66.5491 75.2918 66.9418 75.425L78.8085 80.6399C79.0351 80.7428 79.3109 80.7288 79.5259 80.6026C79.7434 80.4787 79.893 80.2472 79.9163 79.9971L81.0686 67.7954L81.1412 66.9773C81.2346 66.3601 80.4773 65.874 79.9561 66.2106L77.4762 67.6691L66.2756 48.6302L76.2678 35.4584L78.5373 37.1789C78.7055 37.3168 78.9277 37.3494 79.1404 37.3331V37.3191C79.5611 37.2793 79.8438 36.8656 79.7972 36.4589L80.1033 23.5045C80.1103 23.2543 79.9911 23.0065 79.7901 22.8546C79.5914 22.7004 79.3203 22.6513 79.0796 22.7237L67.3743 26.3001L67.3041 26.32L67.2713 26.3292C66.5743 26.5254 65.7323 26.7624 66.1307 27.691C66.0912 27.7702 67.5312 28.8455 68.244 29.3778L68.2446 29.3783C68.4574 29.5371 68.6052 29.6475 68.6293 29.6685L53.051 50.2151V24.8602H55.8956C56.1176 24.8672 56.3116 24.7527 56.4728 24.6124V24.6031C56.7838 24.3133 56.744 23.8247 56.4728 23.5231L48.8789 13.0044C48.7316 12.801 48.4862 12.6748 48.2362 12.6771C47.986 12.6748 47.7406 12.801 47.5957 13.0044L40.4272 22.9178L39.9456 23.5886V23.6027C39.5623 24.0842 39.9784 24.8766 40.5861 24.8509H43.4587V74.2446C43.4422 76.0469 43.0893 77.8654 42.2993 79.49C41.098 82.0448 38.6016 83.7675 35.8787 84.3518C29.2395 85.7768 23.168 82.7719 19.1011 77.3886C12.8704 68.8148 10.3144 59.3265 10.3144 49.902C10.3144 32.3862 19.6114 17.0416 33.54 8.53397L28.745 0.373291Z" fill="white"/>
</svg>
